HIERARCHY
ROOT Hips
{
	OFFSET 0.000000 0.000000 0.000000
	CHANNELS 6 Xposition Yposition Zposition Zrotation Yrotation Xrotation 
	JOINT LHipJoint
	{
		OFFSET 0.000000 0.000000 0.000000
		CHANNELS 3 Zrotation Yrotation Xrotation
		JOINT LeftUpLeg
		{
			OFFSET 1.363060 -1.794630 0.839290
			CHANNELS 3 Zrotation Yrotation Xrotation
			JOINT LeftLeg
			{
				OFFSET 2.448110 -6.726130 0.000000
				CHANNELS 3 Zrotation Yrotation Xrotation
				JOINT LeftFoot
				{
					OFFSET 2.562200 -7.039590 0.000000
					CHANNELS 3 Zrotation Yrotation Xrotation
					JOINT LeftToeBase
					{
						OFFSET 0.157640 -0.433110 2.322550
						CHANNELS 3 Zrotation Yrotation Xrotation
						End Site
						{
							OFFSET 0.000000 0.000000 0.000000
						}
					}
				}
			}
		}
	}
	JOINT RHipJoint
	{
		OFFSET 0.000000 0.000000 0.000000
		CHANNELS 3 Zrotation Yrotation Xrotation
		JOINT RightUpLeg
		{
			OFFSET -1.305520 -1.794630 0.839290
			CHANNELS 3 Zrotation Yrotation Xrotation
			JOINT RightLeg
			{
				OFFSET -2.542530 -6.985550 0.000000
				CHANNELS 3 Zrotation Yrotation Xrotation
				JOINT RightFoot
				{
					OFFSET -2.568260 -7.056230 0.000000
					CHANNELS 3 Zrotation Yrotation Xrotation
					JOINT RightToeBase
					{
						OFFSET -0.164730 -0.452590 2.363150
						CHANNELS 3 Zrotation Yrotation Xrotation
						End Site
						{
							OFFSET 0.000000 0.000000 0.000000
						}
					}
				}
			}
		}
	}
	JOINT LowerBack
	{
		OFFSET 0.000000 0.000000 0.000000
		CHANNELS 3 Zrotation Yrotation Xrotation
		JOINT Spine
		{
			OFFSET 0.028270 2.035590 -0.193380
			CHANNELS 3 Zrotation Yrotation Xrotation
			JOINT Spine1
			{
				OFFSET 0.056720 2.048850 -0.042750
				CHANNELS 3 Zrotation Yrotation Xrotation
				JOINT Neck
				{
					OFFSET 0.000000 0.000000 0.000000
					CHANNELS 3 Zrotation Yrotation Xrotation
					JOINT Neck1
					{
						OFFSET -0.054170 1.746240 0.172020
						CHANNELS 3 Zrotation Yrotation Xrotation
						JOINT Head
						{
							OFFSET 0.104070 1.761360 -0.123970
							CHANNELS 3 Zrotation Yrotation Xrotation
							End Site
							{
								OFFSET 0.000000 0.000000 0.000000
							}
						}
					}
				}
				JOINT LeftShoulder
				{
					OFFSET 0.000000 0.000000 0.000000
					CHANNELS 3 Zrotation Yrotation Xrotation
					JOINT LeftArm
					{
						OFFSET 3.362410 1.200890 -0.311210
						CHANNELS 3 Zrotation Yrotation Xrotation
						JOINT LeftForeArm
						{
							OFFSET 4.983000 -0.000000 -0.000000
							CHANNELS 3 Zrotation Yrotation Xrotation
							JOINT LeftHand
							{
								OFFSET 3.483560 -0.000000 -0.000000
								CHANNELS 3 Zrotation Yrotation Xrotation
								JOINT LeftFingerBase
								{
									OFFSET 0.000000 0.000000 0.000000
									CHANNELS 3 Zrotation Yrotation Xrotation
									JOINT LeftHandIndex1
									{
										OFFSET 0.715260 -0.000000 -0.000000
										CHANNELS 3 Zrotation Yrotation Xrotation
										End Site
										{
											OFFSET 0.000000 0.000000 0.000000
										}
									}
								}
								JOINT LThumb
								{
									OFFSET 0.000000 0.000000 0.000000
									CHANNELS 3 Zrotation Yrotation Xrotation
									End Site
									{
										OFFSET 0.000000 0.000000 0.000000
									}
								}
							}
						}
					}
				}
				JOINT RightShoulder
				{
					OFFSET 0.000000 0.000000 0.000000
					CHANNELS 3 Zrotation Yrotation Xrotation
					JOINT RightArm
					{
						OFFSET -3.136600 1.374050 -0.404650
						CHANNELS 3 Zrotation Yrotation Xrotation
						JOINT RightForeArm
						{
							OFFSET -5.241900 -0.000000 -0.000000
							CHANNELS 3 Zrotation Yrotation Xrotation
							JOINT RightHand
							{
								OFFSET -3.444170 -0.000000 -0.000000
								CHANNELS 3 Zrotation Yrotation Xrotation
								JOINT RightFingerBase
								{
									OFFSET 0.000000 0.000000 0.000000
									CHANNELS 3 Zrotation Yrotation Xrotation
									JOINT RightHandIndex1
									{
										OFFSET -0.622530 -0.000000 -0.000000
										CHANNELS 3 Zrotation Yrotation Xrotation
										End Site
										{
											OFFSET 0.000000 0.000000 0.000000
										}
									}
								}
								JOINT RThumb
								{
									OFFSET 0.000000 0.000000 0.000000
									CHANNELS 3 Zrotation Yrotation Xrotation
									End Site
									{
										OFFSET 0.000000 0.000000 0.000000
									}
								}
							}
						}
					}
				}
			}
		}
	}
}
MOTION
Frames: 4
Frame Time: 0.008333
10.110561 20.891946 0.781907 29.973046 -85.419745 -5.787944 -11.029830 2.364187 3.221512 -7.485560 0.256599 -29.865671 -0.344181 0.684069 21.062516 1.644740 8.288497 31.907943 4.821800 0.000000 -58.063200 10.567271 -1.927656 1.523314 5.420082 -7.865196 -26.820454 1.855181 -0.631438 12.213449 -0.047587 -0.697342 21.500203 -0.813300 -0.000000 -84.334800 0.042301 -1.103294 -5.319742 -0.240058 -1.157401 -5.250034 -3.574815 -1.092751 -7.038746 2.394977 -2.600766 3.820847 -1.554000 -0.292534 3.225057 0.000000 0.000000 0.000000 10.259138 -3.713026 -4.702915 -47.112286 -63.674698 -25.565434 176.712630 -72.336813 179.694539 17.784122 -5.161469 -0.973153 -0.065904 1.022497 -0.000000 0.000000 0.000000 0.000000 0.000000 0.000000 0.000000 -2.888981 -2.729473 -5.398351 41.346421 71.554131 -31.435970 -178.605715 87.959194 179.676025 -20.845762 13.431937 -2.681202 0.076648 -0.985225 -0.000000 0.000000 0.000000 0.000000 0.000000 0.000000 0.000000 
9.979282 20.976685 0.773387 29.778984 -85.363778 -5.395767 -11.006404 2.277580 3.134967 -7.893655 0.363248 -30.493648 -0.440310 0.669784 20.299328 1.588556 8.188906 31.740268 4.787000 0.000000 -57.981800 10.501683 -1.848521 1.534097 5.647856 -7.940150 -27.402727 2.029477 -0.500525 10.868597 -0.011458 -0.802072 21.055324 -0.907799 -0.000000 -84.174000 0.149216 -1.057704 -5.186968 -0.216128 -1.117039 -5.215795 -3.528822 -1.047486 -6.985254 2.338512 -2.529177 4.034333 -1.555900 -0.295313 3.277739 0.000000 0.000000 0.000000 10.360537 -3.322244 -4.785232 -46.302272 -63.757870 -27.222808 176.502252 -70.762080 179.684274 18.496569 -5.268025 -1.031828 -0.090322 1.024266 -0.000000 0.000000 0.000000 0.000000 0.000000 0.000000 0.000000 -2.986000 -2.886416 -5.597220 39.746415 71.466750 -33.270359 -178.350090 86.108175 179.673422 -21.192086 13.468164 -2.735061 0.088795 -0.985393 -0.000000 0.000000 0.000000 0.000000 0.000000 0.000000 0.000000 
9.848447 21.050294 0.764942 29.644310 -85.319154 -5.071414 -10.980995 2.193821 3.055169 -8.305702 0.453537 -31.080233 -0.544831 0.647014 19.418325 1.531594 8.141782 31.530126 4.785300 0.000000 -57.889400 10.433427 -1.768303 1.546447 5.892266 -8.031398 -27.997187 2.201694 -0.361984 9.549541 0.015848 -0.947387 20.571737 -1.019200 -0.000001 -83.997400 0.254890 -1.007251 -5.062065 -0.192456 -1.071959 -5.183038 -3.483873 -0.998508 -6.929461 2.286682 -2.427128 4.247850 -1.557280 -0.298004 3.330315 0.000000 0.000000 0.000000 10.417946 -2.958171 -4.853242 -45.610301 -63.836644 -28.668953 176.321228 -69.341482 179.674620 19.179060 -5.413849 -1.096994 -0.114492 1.026329 -0.000000 0.000000 0.000000 0.000000 0.000000 0.000000 0.000000 -3.068777 -3.006179 -5.779035 38.266692 71.360479 -34.937805 -178.116113 84.380747 179.670826 -21.539668 13.539159 -2.796216 0.100973 -0.985938 -0.000000 0.000000 0.000000 0.000000 0.000000 0.000000 0.000000 
9.717969 21.112795 0.756633 29.542407 -85.279840 -4.792080 -10.952598 2.113161 2.983601 -8.721272 0.524081 -31.633984 -0.659011 0.616252 18.450406 1.472083 8.133561 31.232449 4.804000 -0.000000 -57.781900 10.363804 -1.687077 1.557600 6.152318 -8.149050 -28.607435 2.371227 -0.219594 8.279959 0.039025 -1.088911 20.066075 -1.124500 -0.000000 -83.737300 0.357980 -0.954080 -4.944810 -0.169207 -1.024144 -5.151674 -3.440273 -0.947651 -6.872128 2.240098 -2.302602 4.457823 -1.557803 -0.300553 3.381897 0.000000 0.000000 0.000000 10.433435 -2.623086 -4.907737 -45.039582 -63.915970 -29.888632 176.169008 -68.074586 179.665812 19.811944 -5.590932 -1.166651 -0.137594 1.028781 -0.000000 0.000000 0.000000 0.000000 0.000000 0.000000 0.000000 -3.140170 -3.093912 -5.943327 36.915149 71.237734 -36.431964 -177.903386 82.778309 179.668190 -21.891713 13.634794 -2.863368 0.113202 -0.986789 -0.000000 0.000000 0.000000 0.000000 0.000000 0.000000 0.000000 
